<?xml version="1.0" encoding="UTF-8" standalone="no"?>
<!-- Created with Inkscape (http://www.inkscape.org/) -->

<svg
   xmlns:dc="http://purl.org/dc/elements/1.1/"
   xmlns:cc="http://creativecommons.org/ns#"
   xmlns:rdf="http://www.w3.org/1999/02/22-rdf-syntax-ns#"
   xmlns:svg="http://www.w3.org/2000/svg"
   xmlns="http://www.w3.org/2000/svg"
   xmlns:sodipodi="http://sodipodi.sourceforge.net/DTD/sodipodi-0.dtd"
   xmlns:inkscape="http://www.inkscape.org/namespaces/inkscape"
   width="24"
   height="24"
   viewBox="0 0 6.3499999 6.3499999"
   version="1.1"
   id="svg5202"
   inkscape:version="0.92.1 r15371"
   sodipodi:docname="action.svg">
  <defs
     id="defs5196" />
  <sodipodi:namedview
     id="base"
     pagecolor="#ffffff"
     bordercolor="#666666"
     borderopacity="1.0"
     inkscape:pageopacity="0.0"
     inkscape:pageshadow="2"
     inkscape:zoom="22.4"
     inkscape:cx="4.7573471"
     inkscape:cy="12.112734"
     inkscape:document-units="mm"
     inkscape:current-layer="layer1"
     showgrid="false"
     fit-margin-top="0"
     fit-margin-left="0"
     fit-margin-right="0"
     fit-margin-bottom="0"
     units="px"
     inkscape:window-width="1920"
     inkscape:window-height="1031"
     inkscape:window-x="0"
     inkscape:window-y="27"
     inkscape:window-maximized="1" />
  <metadata
     id="metadata5199">
    <rdf:RDF>
      <cc:Work
         rdf:about="">
        <dc:format>image/svg+xml</dc:format>
        <dc:type
           rdf:resource="http://purl.org/dc/dcmitype/StillImage" />
        <dc:title></dc:title>
      </cc:Work>
    </rdf:RDF>
  </metadata>
  <g
     inkscape:label="Layer 1"
     inkscape:groupmode="layer"
     id="layer1"
     transform="translate(24.341667,-83.670238)">
    <g
       transform="matrix(0.26458333,0,0,0.26458333,-30.691667,83.670238)"
       id="g4539">
      <path
         inkscape:connector-curvature="0"
         style="opacity:1;fill:#058b00;fill-opacity:1;stroke-width:1.25;image-rendering:auto"
         id="path2-5"
         d="M 41.625,10.75 C 44.0375,10.75 46,8.7875004 46,6.3750001 c 0,-2.4125 -1.9625,-4.375 -4.375,-4.375 -2.4125,0 -4.375,1.9625 -4.375,4.375 v 1.8750003 h -2.5 V 6.3750001 c 0,-2.4125 -1.9625,-4.375 -4.375,-4.375 -2.4125,0 -4.375,1.9625 -4.375,4.375 C 26,8.7875004 27.9625,10.75 30.375,10.75 h 1.875 v 2.5 H 30.375 C 27.9625,13.25 26,15.2125 26,17.625 26,20.0375 27.9625,22 30.375,22 32.7875,22 34.75,20.0375 34.75,17.625 V 15.75 h 2.5 v 1.875 C 37.25,20.0375 39.2125,22 41.625,22 44.0375,22 46,20.0375 46,17.625 46,15.2125 44.0375,13.25 41.625,13.25 H 39.75 v -2.5 z M 39.75,6.3750001 c 0,-1.035 0.84125,-1.875 1.875,-1.875 1.03375,0 1.875,0.84 1.875,1.875 0,1.0325 -0.84125,1.8750003 -1.875,1.8750003 H 39.75 Z M 32.25,17.625 c 0,1.0325 -0.84125,1.875 -1.875,1.875 -1.03375,0 -1.875,-0.8425 -1.875,-1.875 0,-1.035 0.84125,-1.875 1.875,-1.875 h 1.875 z m 0,-9.3749996 h -1.875 c -1.03375,0 -1.875,-0.8425003 -1.875,-1.8750003 0,-1.035 0.84125,-1.875 1.875,-1.875 1.03375,0 1.875,0.84 1.875,1.875 z m 5,4.9999996 h -2.5 v -2.5 h 2.5 z m 4.375,2.5 c 1.03375,0 1.875,0.84 1.875,1.875 0,1.0325 -0.84125,1.875 -1.875,1.875 -1.03375,0 -1.875,-0.8425 -1.875,-1.875 V 15.75 Z" />
      <rect
         y="-1.4210855e-14"
         x="24"
         height="24"
         width="24"
         id="rect4535"
         style="opacity:1;fill:none;fill-opacity:1;stroke:none;stroke-width:4.77818155;stroke-opacity:1" />
    </g>
  </g>
</svg>
